<svg xmlns="http://www.w3.org/2000/svg" xmlns:xlink="http://www.w3.org/1999/xlink" width="1920" zoomAndPan="magnify" viewBox="0 0 1440 659.999997" height="880" preserveAspectRatio="xMidYMid meet" version="1.0"><defs><filter x="0%" y="0%" width="100%" height="100%" id="3fda656825"><feColorMatrix values="0 0 0 0 1 0 0 0 0 1 0 0 0 0 1 0 0 0 1 0" color-interpolation-filters="sRGB"/></filter><mask id="a80d18bad5"><g filter="url(#3fda656825)"><rect x="-144" width="1728" fill="#000000" y="-66" height="791.999997" fill-opacity="0.4"/></g></mask><clipPath id="66f60cf323"><rect x="0" width="1203" y="0" height="660"/></clipPath></defs><g mask="url(#a80d18bad5)"><g transform="matrix(1, 0, 0, 1, 120, 0.000000000000023141)"><g clip-path="url(#66f60cf323)"><path fill="#14b8a6" d="M 1189.703125 0.0429688 C 1189.457031 0.0429688 1189.191406 0.0429688 1188.929688 0.0703125 L 1030.734375 10.011719 C 1023.949219 10.441406 1018.820312 16.28125 1019.222656 23.050781 C 1019.652344 29.816406 1025.582031 35.21875 1032.273438 34.546875 L 1162.84375 26.339844 L 1082.238281 127.550781 C 1078.015625 132.851562 1078.882812 140.582031 1084.195312 144.832031 C 1089.511719 149.078125 1097.25 148.171875 1101.464844 142.867188 L 1199.316406 20 C 1202.34375 16.207031 1202.847656 10.972656 1200.609375 6.648438 C 1198.476562 2.570312 1194.269531 0.0429688 1189.703125 0.0429688 " fill-opacity="1" fill-rule="nonzero"/><path fill="#14b8a6" d="M 964.277344 563.699219 C 959.222656 563.699219 953.996094 563.039062 948.605469 561.699219 C 903.214844 550.503906 854.265625 494.371094 817.539062 436.625 C 917.582031 449.601562 1008.457031 471.152344 1023.839844 505.011719 C 1025.6875 509.070312 1031.304688 521.429688 1006.890625 544.898438 C 993.792969 557.480469 979.742188 563.699219 964.277344 563.699219 Z M 1167.28125 3.9375 C 1164.355469 3.9375 1161.410156 4.972656 1159.070312 7.085938 C 1126.257812 36.558594 1062.472656 58.121094 994.96875 80.929688 C 859.03125 126.878906 689.882812 184.035156 741.902344 340.058594 C 747.492188 356.878906 757.875 380.667969 771.859375 406.933594 C 649.25 394.957031 531.960938 395.710938 529.644531 395.984375 L 519.261719 396.894531 C 410.011719 406.277344 119.792969 431.203125 29.21875 547.492188 C 5.882812 577.425781 -2.875 611.472656 3.171875 648.640625 C 4.265625 655.3125 10.492188 659.875 17.289062 658.796875 C 23.988281 657.699219 28.535156 651.390625 27.445312 644.683594 C 22.460938 614.125 29.386719 587.269531 48.601562 562.589844 C 132.601562 454.777344 425.214844 429.628906 521.367188 421.371094 L 531.796875 420.480469 C 560.003906 418.054688 674.644531 420.449219 786.398438 432.886719 C 825.386719 498.90625 883.027344 570.828125 942.710938 585.570312 C 972.597656 592.945312 1000.625 585 1023.925781 562.628906 C 1048.441406 539.035156 1055.945312 516.234375 1046.21875 494.832031 C 1024.855469 447.847656 914.695312 423.070312 801.550781 410.078125 C 784.972656 380.964844 772.160156 353.121094 765.222656 332.277344 C 720.941406 199.496094 864.246094 151.050781 1002.839844 104.238281 C 1072.828125 80.589844 1138.921875 58.238281 1175.5 25.375 C 1180.539062 20.835938 1180.960938 13.058594 1176.421875 8.019531 C 1173.984375 5.304688 1170.636719 3.9375 1167.28125 3.9375 " fill-opacity="1" fill-rule="nonzero"/></g></g></g></svg>