<svg xmlns="http://www.w3.org/2000/svg" xmlns:xlink="http://www.w3.org/1999/xlink" width="1920" zoomAndPan="magnify" viewBox="0 0 1440 659.999997" height="880" preserveAspectRatio="xMidYMid meet" version="1.0"><path fill="#14b8a6" d="M 1309.703125 659.957031 C 1309.457031 659.957031 1309.191406 659.957031 1308.929688 659.929688 L 1150.734375 649.988281 C 1143.949219 649.558594 1138.820312 643.71875 1139.222656 636.949219 C 1139.652344 630.183594 1145.582031 624.78125 1152.273438 625.453125 L 1282.84375 633.660156 L 1202.238281 532.449219 C 1198.015625 527.148438 1198.882812 519.417969 1204.195312 515.167969 C 1209.511719 510.921875 1217.25 511.828125 1221.464844 517.132812 L 1319.316406 640 C 1322.34375 643.792969 1322.847656 649.027344 1320.609375 653.351562 C 1318.476562 657.429688 1314.269531 659.957031 1309.703125 659.957031 " fill-opacity="1" fill-rule="nonzero"/><path fill="#14b8a6" d="M 1084.277344 96.300781 C 1079.222656 96.300781 1073.996094 96.960938 1068.605469 98.300781 C 1023.214844 109.496094 974.265625 165.628906 937.539062 223.375 C 1037.582031 210.398438 1128.457031 188.847656 1143.839844 154.988281 C 1145.6875 150.929688 1151.304688 138.570312 1126.890625 115.101562 C 1113.792969 102.519531 1099.742188 96.300781 1084.277344 96.300781 Z M 1287.28125 656.0625 C 1284.355469 656.0625 1281.410156 655.027344 1279.070312 652.914062 C 1246.257812 623.441406 1182.472656 601.878906 1114.96875 579.070312 C 979.03125 533.121094 809.882812 475.964844 861.902344 319.941406 C 867.492188 303.121094 877.875 279.332031 891.859375 253.066406 C 769.25 265.042969 651.960938 264.289062 649.644531 264.015625 L 639.261719 263.105469 C 530.011719 253.722656 239.792969 228.796875 149.21875 112.507812 C 125.882812 82.574219 117.125 48.527344 123.171875 11.359375 C 124.265625 4.6875 130.492188 0.125 137.289062 1.203125 C 143.988281 2.300781 148.535156 8.609375 147.445312 15.316406 C 142.460938 45.875 149.386719 72.730469 168.601562 97.410156 C 252.601562 205.222656 545.214844 230.371094 641.367188 238.628906 L 651.796875 239.519531 C 680.003906 241.945312 794.644531 239.550781 906.398438 227.113281 C 945.386719 161.09375 1003.027344 89.171875 1062.710938 74.429688 C 1092.597656 67.054688 1120.625 75 1143.925781 97.371094 C 1168.441406 120.964844 1175.945312 143.765625 1166.21875 165.167969 C 1144.855469 212.152344 1034.695312 236.929688 921.550781 249.921875 C 904.972656 279.035156 892.160156 306.878906 885.222656 327.722656 C 840.941406 460.503906 984.246094 508.949219 1122.839844 555.761719 C 1192.828125 579.410156 1258.921875 601.761719 1295.5 634.625 C 1300.539062 639.164062 1300.960938 646.941406 1296.421875 651.980469 C 1293.984375 654.695312 1290.636719 656.0625 1287.28125 656.0625 " fill-opacity="1" fill-rule="nonzero"/></svg>